<mxfile host="65bd71144e">
    <diagram name="Page-1" id="c4acf3e9-155e-7222-9cf6-157b1a14988f">
        <mxGraphModel dx="1412" dy="467" grid="1" gridSize="10" guides="1" tooltips="1" connect="1" arrows="1" fold="1" page="1" pageScale="1" pageWidth="850" pageHeight="1100" background="none" math="0" shadow="0">
            <root>
                <mxCell id="0"/>
                <mxCell id="1" parent="0"/>
                <mxCell id="2" value="Motorista" style="swimlane;fontStyle=1;align=center;verticalAlign=top;childLayout=stackLayout;horizontal=1;startSize=26;horizontalStack=0;resizeParent=1;resizeParentMax=0;resizeLast=0;collapsible=1;marginBottom=0;" parent="1" vertex="1">
                    <mxGeometry x="570" y="350" width="270" height="164" as="geometry"/>
                </mxCell>
                <mxCell id="3" value="- cnh: string" style="text;strokeColor=none;fillColor=none;align=left;verticalAlign=top;spacingLeft=4;spacingRight=4;overflow=hidden;rotatable=0;points=[[0,0.5],[1,0.5]];portConstraint=eastwest;" parent="2" vertex="1">
                    <mxGeometry y="26" width="270" height="26" as="geometry"/>
                </mxCell>
                <mxCell id="6" value="- tipoCnh: string" style="text;strokeColor=none;fillColor=none;align=left;verticalAlign=top;spacingLeft=4;spacingRight=4;overflow=hidden;rotatable=0;points=[[0,0.5],[1,0.5]];portConstraint=eastwest;" parent="2" vertex="1">
                    <mxGeometry y="52" width="270" height="26" as="geometry"/>
                </mxCell>
                <mxCell id="7" value="- licenca?: string" style="text;strokeColor=none;fillColor=none;align=left;verticalAlign=top;spacingLeft=4;spacingRight=4;overflow=hidden;rotatable=0;points=[[0,0.5],[1,0.5]];portConstraint=eastwest;" parent="2" vertex="1">
                    <mxGeometry y="78" width="270" height="26" as="geometry"/>
                </mxCell>
                <mxCell id="4" value="" style="line;strokeWidth=1;fillColor=none;align=left;verticalAlign=middle;spacingTop=-1;spacingLeft=3;spacingRight=3;rotatable=0;labelPosition=right;points=[];portConstraint=eastwest;strokeColor=inherit;" parent="2" vertex="1">
                    <mxGeometry y="104" width="270" height="8" as="geometry"/>
                </mxCell>
                <mxCell id="5" value="+ atualizarLicenca(novaLicenca:string): void" style="text;strokeColor=none;fillColor=none;align=left;verticalAlign=top;spacingLeft=4;spacingRight=4;overflow=hidden;rotatable=0;points=[[0,0.5],[1,0.5]];portConstraint=eastwest;" parent="2" vertex="1">
                    <mxGeometry y="112" width="270" height="26" as="geometry"/>
                </mxCell>
                <mxCell id="71" value="+ dirigir(carro: Carro): void" style="text;strokeColor=none;fillColor=none;align=left;verticalAlign=top;spacingLeft=4;spacingRight=4;overflow=hidden;rotatable=0;points=[[0,0.5],[1,0.5]];portConstraint=eastwest;" vertex="1" parent="2">
                    <mxGeometry y="138" width="270" height="26" as="geometry"/>
                </mxCell>
                <mxCell id="9" value="&lt;&lt; Pessoa &gt;&gt;" style="swimlane;fontStyle=3;align=center;verticalAlign=top;childLayout=stackLayout;horizontal=1;startSize=26;horizontalStack=0;resizeParent=1;resizeParentMax=0;resizeLast=0;collapsible=1;marginBottom=0;" parent="1" vertex="1">
                    <mxGeometry x="625" y="80" width="160" height="182" as="geometry"/>
                </mxCell>
                <mxCell id="10" value="# nome: string" style="text;strokeColor=none;fillColor=none;align=left;verticalAlign=top;spacingLeft=4;spacingRight=4;overflow=hidden;rotatable=0;points=[[0,0.5],[1,0.5]];portConstraint=eastwest;" parent="9" vertex="1">
                    <mxGeometry y="26" width="160" height="26" as="geometry"/>
                </mxCell>
                <mxCell id="13" value="# cpf: string" style="text;strokeColor=none;fillColor=none;align=left;verticalAlign=top;spacingLeft=4;spacingRight=4;overflow=hidden;rotatable=0;points=[[0,0.5],[1,0.5]];portConstraint=eastwest;" parent="9" vertex="1">
                    <mxGeometry y="52" width="160" height="26" as="geometry"/>
                </mxCell>
                <mxCell id="14" value="# idade: number" style="text;strokeColor=none;fillColor=none;align=left;verticalAlign=top;spacingLeft=4;spacingRight=4;overflow=hidden;rotatable=0;points=[[0,0.5],[1,0.5]];portConstraint=eastwest;" parent="9" vertex="1">
                    <mxGeometry y="78" width="160" height="26" as="geometry"/>
                </mxCell>
                <mxCell id="15" value="# rg?: string" style="text;strokeColor=none;fillColor=none;align=left;verticalAlign=top;spacingLeft=4;spacingRight=4;overflow=hidden;rotatable=0;points=[[0,0.5],[1,0.5]];portConstraint=eastwest;" parent="9" vertex="1">
                    <mxGeometry y="104" width="160" height="26" as="geometry"/>
                </mxCell>
                <mxCell id="16" value="# email: string" style="text;strokeColor=none;fillColor=none;align=left;verticalAlign=top;spacingLeft=4;spacingRight=4;overflow=hidden;rotatable=0;points=[[0,0.5],[1,0.5]];portConstraint=eastwest;" parent="9" vertex="1">
                    <mxGeometry y="130" width="160" height="26" as="geometry"/>
                </mxCell>
                <mxCell id="17" value="# telefone: string" style="text;strokeColor=none;fillColor=none;align=left;verticalAlign=top;spacingLeft=4;spacingRight=4;overflow=hidden;rotatable=0;points=[[0,0.5],[1,0.5]];portConstraint=eastwest;" parent="9" vertex="1">
                    <mxGeometry y="156" width="160" height="26" as="geometry"/>
                </mxCell>
                <mxCell id="18" value="" style="endArrow=block;dashed=1;endFill=0;endSize=12;html=1;exitX=0.5;exitY=0;exitDx=0;exitDy=0;" parent="1" source="2" target="17" edge="1">
                    <mxGeometry width="160" relative="1" as="geometry">
                        <mxPoint x="670" y="280" as="sourcePoint"/>
                        <mxPoint x="830" y="280" as="targetPoint"/>
                    </mxGeometry>
                </mxCell>
                <mxCell id="19" value="Carro" style="swimlane;fontStyle=1;align=center;verticalAlign=top;childLayout=stackLayout;horizontal=1;startSize=26;horizontalStack=0;resizeParent=1;resizeParentMax=0;resizeLast=0;collapsible=1;marginBottom=0;" parent="1" vertex="1">
                    <mxGeometry x="200" y="376" width="160" height="138" as="geometry"/>
                </mxCell>
                <mxCell id="20" value="- motor: Motor" style="text;strokeColor=none;fillColor=none;align=left;verticalAlign=top;spacingLeft=4;spacingRight=4;overflow=hidden;rotatable=0;points=[[0,0.5],[1,0.5]];portConstraint=eastwest;" parent="19" vertex="1">
                    <mxGeometry y="26" width="160" height="26" as="geometry"/>
                </mxCell>
                <mxCell id="52" value="- pneus: Array&lt;Pneu&gt;" style="text;strokeColor=none;fillColor=none;align=left;verticalAlign=top;spacingLeft=4;spacingRight=4;overflow=hidden;rotatable=0;points=[[0,0.5],[1,0.5]];portConstraint=eastwest;" parent="19" vertex="1">
                    <mxGeometry y="52" width="160" height="26" as="geometry"/>
                </mxCell>
                <mxCell id="55" value="- autoRatio?: AutoRadio" style="text;strokeColor=none;fillColor=none;align=left;verticalAlign=top;spacingLeft=4;spacingRight=4;overflow=hidden;rotatable=0;points=[[0,0.5],[1,0.5]];portConstraint=eastwest;" parent="19" vertex="1">
                    <mxGeometry y="78" width="160" height="26" as="geometry"/>
                </mxCell>
                <mxCell id="21" value="" style="line;strokeWidth=1;fillColor=none;align=left;verticalAlign=middle;spacingTop=-1;spacingLeft=3;spacingRight=3;rotatable=0;labelPosition=right;points=[];portConstraint=eastwest;strokeColor=inherit;" parent="19" vertex="1">
                    <mxGeometry y="104" width="160" height="8" as="geometry"/>
                </mxCell>
                <mxCell id="22" value="- validar(): void" style="text;strokeColor=none;fillColor=none;align=left;verticalAlign=top;spacingLeft=4;spacingRight=4;overflow=hidden;rotatable=0;points=[[0,0.5],[1,0.5]];portConstraint=eastwest;" parent="19" vertex="1">
                    <mxGeometry y="112" width="160" height="26" as="geometry"/>
                </mxCell>
                <mxCell id="23" value="" style="endArrow=none;html=1;exitX=1;exitY=0.5;exitDx=0;exitDy=0;entryX=0;entryY=0.5;entryDx=0;entryDy=0;" parent="1" source="20" target="6" edge="1">
                    <mxGeometry width="50" height="50" relative="1" as="geometry">
                        <mxPoint x="340" y="420" as="sourcePoint"/>
                        <mxPoint x="390" y="370" as="targetPoint"/>
                    </mxGeometry>
                </mxCell>
                <mxCell id="24" value="dirige" style="text;html=1;strokeColor=none;fillColor=none;align=center;verticalAlign=middle;whiteSpace=wrap;rounded=0;" parent="1" vertex="1">
                    <mxGeometry x="425" y="390" width="60" height="30" as="geometry"/>
                </mxCell>
                <mxCell id="25" value="Motor" style="swimlane;fontStyle=1;align=center;verticalAlign=top;childLayout=stackLayout;horizontal=1;startSize=26;horizontalStack=0;resizeParent=1;resizeParentMax=0;resizeLast=0;collapsible=1;marginBottom=0;" parent="1" vertex="1">
                    <mxGeometry x="-90" y="376" width="160" height="52" as="geometry"/>
                </mxCell>
                <mxCell id="26" value="- potencia: string" style="text;strokeColor=none;fillColor=none;align=left;verticalAlign=top;spacingLeft=4;spacingRight=4;overflow=hidden;rotatable=0;points=[[0,0.5],[1,0.5]];portConstraint=eastwest;" parent="25" vertex="1">
                    <mxGeometry y="26" width="160" height="26" as="geometry"/>
                </mxCell>
                <mxCell id="29" value="Pneu" style="swimlane;fontStyle=1;align=center;verticalAlign=top;childLayout=stackLayout;horizontal=1;startSize=26;horizontalStack=0;resizeParent=1;resizeParentMax=0;resizeLast=0;collapsible=1;marginBottom=0;" parent="1" vertex="1">
                    <mxGeometry x="190" y="176" width="160" height="78" as="geometry"/>
                </mxCell>
                <mxCell id="30" value="- aro:  number" style="text;strokeColor=none;fillColor=none;align=left;verticalAlign=top;spacingLeft=4;spacingRight=4;overflow=hidden;rotatable=0;points=[[0,0.5],[1,0.5]];portConstraint=eastwest;" parent="29" vertex="1">
                    <mxGeometry y="26" width="160" height="26" as="geometry"/>
                </mxCell>
                <mxCell id="59" value="- marca: string" style="text;strokeColor=none;fillColor=none;align=left;verticalAlign=top;spacingLeft=4;spacingRight=4;overflow=hidden;rotatable=0;points=[[0,0.5],[1,0.5]];portConstraint=eastwest;" parent="29" vertex="1">
                    <mxGeometry y="52" width="160" height="26" as="geometry"/>
                </mxCell>
                <mxCell id="34" value="" style="endArrow=diamondThin;endFill=1;endSize=24;html=1;exitX=0;exitY=0.5;exitDx=0;exitDy=0;" parent="1" source="20" target="26" edge="1">
                    <mxGeometry width="160" relative="1" as="geometry">
                        <mxPoint x="90" y="320" as="sourcePoint"/>
                        <mxPoint x="250" y="320" as="targetPoint"/>
                    </mxGeometry>
                </mxCell>
                <mxCell id="35" value="possui" style="text;html=1;strokeColor=none;fillColor=none;align=center;verticalAlign=middle;whiteSpace=wrap;rounded=0;" parent="1" vertex="1">
                    <mxGeometry x="110" y="390" width="60" height="30" as="geometry"/>
                </mxCell>
                <mxCell id="36" value="possui" style="text;html=1;strokeColor=none;fillColor=none;align=center;verticalAlign=middle;whiteSpace=wrap;rounded=0;" parent="1" vertex="1">
                    <mxGeometry x="280" y="310" width="60" height="30" as="geometry"/>
                </mxCell>
                <mxCell id="37" value="AutoRadio" style="swimlane;fontStyle=1;align=center;verticalAlign=top;childLayout=stackLayout;horizontal=1;startSize=26;horizontalStack=0;resizeParent=1;resizeParentMax=0;resizeLast=0;collapsible=1;marginBottom=0;" parent="1" vertex="1">
                    <mxGeometry x="200" y="710" width="160" height="190" as="geometry"/>
                </mxCell>
                <mxCell id="38" value="- touchScreen: boolean" style="text;strokeColor=none;fillColor=none;align=left;verticalAlign=top;spacingLeft=4;spacingRight=4;overflow=hidden;rotatable=0;points=[[0,0.5],[1,0.5]];portConstraint=eastwest;" parent="37" vertex="1">
                    <mxGeometry y="26" width="160" height="26" as="geometry"/>
                </mxCell>
                <mxCell id="56" value="- leitorCD: boolean" style="text;strokeColor=none;fillColor=none;align=left;verticalAlign=top;spacingLeft=4;spacingRight=4;overflow=hidden;rotatable=0;points=[[0,0.5],[1,0.5]];portConstraint=eastwest;" parent="37" vertex="1">
                    <mxGeometry y="52" width="160" height="26" as="geometry"/>
                </mxCell>
                <mxCell id="57" value="- bluetooth: boolean" style="text;strokeColor=none;fillColor=none;align=left;verticalAlign=top;spacingLeft=4;spacingRight=4;overflow=hidden;rotatable=0;points=[[0,0.5],[1,0.5]];portConstraint=eastwest;" parent="37" vertex="1">
                    <mxGeometry y="78" width="160" height="26" as="geometry"/>
                </mxCell>
                <mxCell id="39" value="" style="line;strokeWidth=1;fillColor=none;align=left;verticalAlign=middle;spacingTop=-1;spacingLeft=3;spacingRight=3;rotatable=0;labelPosition=right;points=[];portConstraint=eastwest;strokeColor=inherit;" parent="37" vertex="1">
                    <mxGeometry y="104" width="160" height="8" as="geometry"/>
                </mxCell>
                <mxCell id="40" value="+ ligar(): void" style="text;strokeColor=none;fillColor=none;align=left;verticalAlign=top;spacingLeft=4;spacingRight=4;overflow=hidden;rotatable=0;points=[[0,0.5],[1,0.5]];portConstraint=eastwest;" parent="37" vertex="1">
                    <mxGeometry y="112" width="160" height="26" as="geometry"/>
                </mxCell>
                <mxCell id="58" value="+ desligar(): void" style="text;strokeColor=none;fillColor=none;align=left;verticalAlign=top;spacingLeft=4;spacingRight=4;overflow=hidden;rotatable=0;points=[[0,0.5],[1,0.5]];portConstraint=eastwest;" parent="37" vertex="1">
                    <mxGeometry y="138" width="160" height="26" as="geometry"/>
                </mxCell>
                <mxCell id="61" value="+ conectarBluetooth(): void" style="text;strokeColor=none;fillColor=none;align=left;verticalAlign=top;spacingLeft=4;spacingRight=4;overflow=hidden;rotatable=0;points=[[0,0.5],[1,0.5]];portConstraint=eastwest;" parent="37" vertex="1">
                    <mxGeometry y="164" width="160" height="26" as="geometry"/>
                </mxCell>
                <mxCell id="41" value="" style="endArrow=diamondThin;endFill=0;endSize=24;html=1;entryX=0.5;entryY=0;entryDx=0;entryDy=0;" parent="1" source="22" target="37" edge="1">
                    <mxGeometry width="160" relative="1" as="geometry">
                        <mxPoint x="160" y="520" as="sourcePoint"/>
                        <mxPoint x="320" y="520" as="targetPoint"/>
                    </mxGeometry>
                </mxCell>
                <mxCell id="42" value="possui" style="text;html=1;strokeColor=none;fillColor=none;align=center;verticalAlign=middle;whiteSpace=wrap;rounded=0;" parent="1" vertex="1">
                    <mxGeometry x="280" y="560" width="60" height="30" as="geometry"/>
                </mxCell>
                <mxCell id="47" value="1" style="text;html=1;strokeColor=none;fillColor=none;align=center;verticalAlign=middle;whiteSpace=wrap;rounded=0;" parent="1" vertex="1">
                    <mxGeometry x="50" y="376" width="60" height="30" as="geometry"/>
                </mxCell>
                <mxCell id="48" value="1.. N" style="text;html=1;strokeColor=none;fillColor=none;align=center;verticalAlign=middle;whiteSpace=wrap;rounded=0;" parent="1" vertex="1">
                    <mxGeometry x="280" y="260" width="60" height="30" as="geometry"/>
                </mxCell>
                <mxCell id="50" value="1" style="text;html=1;strokeColor=none;fillColor=none;align=center;verticalAlign=middle;whiteSpace=wrap;rounded=0;" parent="1" vertex="1">
                    <mxGeometry x="260" y="346" width="60" height="30" as="geometry"/>
                </mxCell>
                <mxCell id="51" value="1" style="text;html=1;strokeColor=none;fillColor=none;align=center;verticalAlign=middle;whiteSpace=wrap;rounded=0;" parent="1" vertex="1">
                    <mxGeometry x="160" y="376" width="60" height="30" as="geometry"/>
                </mxCell>
                <mxCell id="53" value="0...1" style="text;html=1;strokeColor=none;fillColor=none;align=center;verticalAlign=middle;whiteSpace=wrap;rounded=0;" parent="1" vertex="1">
                    <mxGeometry x="280" y="670" width="60" height="30" as="geometry"/>
                </mxCell>
                <mxCell id="54" value="0...1" style="text;html=1;strokeColor=none;fillColor=none;align=center;verticalAlign=middle;whiteSpace=wrap;rounded=0;" parent="1" vertex="1">
                    <mxGeometry x="220" y="550" width="60" height="30" as="geometry"/>
                </mxCell>
                <mxCell id="60" value="" style="endArrow=diamondThin;endFill=1;endSize=24;html=1;exitX=0.25;exitY=1;exitDx=0;exitDy=0;entryX=0.531;entryY=1.066;entryDx=0;entryDy=0;entryPerimeter=0;" parent="1" source="50" target="59" edge="1">
                    <mxGeometry width="160" relative="1" as="geometry">
                        <mxPoint x="330" y="290" as="sourcePoint"/>
                        <mxPoint x="200" y="290" as="targetPoint"/>
                    </mxGeometry>
                </mxCell>
                <mxCell id="62" value="interface &lt;&lt; Contrato &gt;&gt;" style="swimlane;fontStyle=3;align=center;verticalAlign=top;childLayout=stackLayout;horizontal=1;startSize=26;horizontalStack=0;resizeParent=1;resizeParentMax=0;resizeLast=0;collapsible=1;marginBottom=0;" vertex="1" parent="1">
                    <mxGeometry x="600" y="618" width="200" height="52" as="geometry"/>
                </mxCell>
                <mxCell id="63" value="+ dirigir: Carro" style="text;strokeColor=none;fillColor=none;align=left;verticalAlign=top;spacingLeft=4;spacingRight=4;overflow=hidden;rotatable=0;points=[[0,0.5],[1,0.5]];portConstraint=eastwest;" vertex="1" parent="62">
                    <mxGeometry y="26" width="200" height="26" as="geometry"/>
                </mxCell>
                <mxCell id="69" value="" style="endArrow=block;dashed=1;endFill=0;endSize=12;html=1;exitX=0.519;exitY=1.077;exitDx=0;exitDy=0;exitPerimeter=0;entryX=0.55;entryY=0.038;entryDx=0;entryDy=0;entryPerimeter=0;" edge="1" parent="1" source="71" target="62">
                    <mxGeometry width="160" relative="1" as="geometry">
                        <mxPoint x="715" y="360" as="sourcePoint"/>
                        <mxPoint x="715" y="272" as="targetPoint"/>
                    </mxGeometry>
                </mxCell>
                <mxCell id="70" value="implements" style="text;html=1;strokeColor=none;fillColor=none;align=center;verticalAlign=middle;whiteSpace=wrap;rounded=0;" vertex="1" parent="1">
                    <mxGeometry x="720" y="514" width="60" height="30" as="geometry"/>
                </mxCell>
            </root>
        </mxGraphModel>
    </diagram>
</mxfile>